<svg xmlns="http://www.w3.org/2000/svg" viewBox="0 0 100 100" role="img" aria-label="새암정보">
  <defs>
    <linearGradient id="fvbg" x1="0" y1="0" x2="1" y2="1">
      <stop offset="0" stop-color="#0A3E86"/><stop offset="1" stop-color="#071B3A"/>
    </linearGradient>
  </defs>
  <rect width="100" height="100" rx="22" fill="url(#fvbg)"/>
  <g transform="translate(29.6,19) scale(0.16986)">
    <path d="M155.87,18.2 C156.4,19.42 155.67,21.8 155.73,24.27 C155.8,26.73 155.53,29.86 156.27,33 C157,36.14 158.36,40.01 160.13,43.13 C161.91,46.26 164.14,49.13 166.93,51.73 C169.72,54.33 173.3,57.12 176.87,58.73 C180.43,60.34 184.37,61.21 188.33,61.4 C192.3,61.59 197.17,60.01 200.67,59.87 C204.17,59.72 207.51,59.11 209.33,60.53 C211.16,61.96 211.9,64.88 211.6,68.4 C211.3,71.92 209.32,77.48 207.53,81.67 C205.74,85.86 203.74,90.2 200.87,93.53 C197.99,96.87 195.19,99.16 190.27,101.67 C185.34,104.18 177.36,106.48 171.33,108.6 C165.31,110.72 155.5,109.84 154.13,114.4 C152.77,118.96 157.67,128.33 163.13,135.93 C168.6,143.53 178.61,151.6 186.93,160 C195.26,168.4 207.49,179.89 213.07,186.33 C218.64,192.78 218.73,194.17 220.4,198.67 C222.07,203.17 222.96,207.78 223.07,213.33 C223.18,218.89 222.51,225.78 221.07,232 C219.62,238.22 217.64,244.44 214.4,250.67 C211.16,256.89 206.67,263.21 201.6,269.33 C196.53,275.46 190.43,281.37 184,287.4 C177.57,293.43 170.33,299.86 163,305.53 C155.67,311.21 147.89,316.63 140,321.47 C132.11,326.3 123.89,330.71 115.67,334.53 C107.44,338.36 98.33,341.97 90.67,344.4 C83,346.83 75.72,348.32 69.67,349.13 C63.61,349.94 58.83,349.86 54.33,349.27 C49.83,348.68 46.28,347.36 42.67,345.6 C39.06,343.84 34.61,340.91 32.67,338.73 C30.72,336.56 30.44,334.43 31,332.53 C31.56,330.63 33.13,329.17 36,327.33 C38.87,325.5 44.74,323.96 48.2,321.53 C51.66,319.11 54.31,316.17 56.73,312.8 C59.16,309.43 61.67,305.24 62.73,301.33 C63.8,297.42 63.69,293.36 63.13,289.33 C62.58,285.31 61.17,280.88 59.4,277.2 C57.63,273.52 53.78,270.03 52.53,267.27 C51.29,264.5 50.78,262.19 51.93,260.6 C53.09,259.01 55.73,258.2 59.47,257.73 C63.2,257.27 67.91,256.71 74.33,257.8 C80.76,258.89 90.83,262.14 98,264.27 C105.17,266.39 111.58,268.73 117.33,270.53 C123.09,272.33 130.06,275 132.53,275.07 C135.01,275.13 135.14,274.67 132.2,270.93 C129.26,267.2 121.37,259.32 114.87,252.67 C108.37,246.01 100.36,238.06 93.2,231 C86.04,223.94 76.58,216 71.93,210.33 C67.29,204.67 66.48,202.94 65.33,197 C64.19,191.06 63.94,184.39 65.07,174.67 C66.19,164.94 68.32,151.61 72.07,138.67 C75.81,125.72 81.44,110.28 87.53,97 C93.62,83.72 101.82,69.43 108.6,59 C115.38,48.57 122.24,40.73 128.2,34.4 C134.16,28.07 140.28,23.91 144.33,21 C148.39,18.09 150.61,17.4 152.53,16.93 C154.46,16.47 155.33,16.98 155.87,18.2 Z" fill="#FFFFFF"/>
  </g>
</svg>
