<svg xmlns="http://www.w3.org/2000/svg" viewBox="0 0 100 100">
  <defs>
    <linearGradient id="g1" x1="0%" y1="0%" x2="100%" y2="100%">
      <stop offset="0%" stop-color="#5CCBEE"/><stop offset="100%" stop-color="#0A4D8C"/>
    </linearGradient>
    <linearGradient id="g2" x1="0%" y1="0%" x2="100%" y2="100%">
      <stop offset="0%" stop-color="#7DD6F0"/><stop offset="100%" stop-color="#3BA5DC"/>
    </linearGradient>
  </defs>
  <path d="M30 16 C44 8 64 12 68 26 C70 34 64 40 55 41 C63 38 66 31 62 25 C57 17 43 16 33 22 C28 25 27 21 30 16 Z" fill="url(#g2)"/>
  <path d="M64 30 C72 36 70 47 60 52 C50 57 40 56 32 64 C30 56 38 51 47 49 C56 47 60 41 56 35 C53 31 47 31 42 34 C48 28 58 26 64 30 Z" fill="url(#g1)"/>
  <path d="M70 60 C56 70 36 68 30 54 C27 46 33 39 43 39 C35 42 32 49 36 55 C42 64 57 64 67 57 C72 54 73 56 70 60 Z" fill="url(#g2)"/>
</svg>
